<?xml version="1.0" standalone="no"?>
<!DOCTYPE svg PUBLIC "-//W3C//DTD SVG 20010904//EN"
 "http://www.w3.org/TR/2001/REC-SVG-20010904/DTD/svg10.dtd">
<svg version="1.0" xmlns="http://www.w3.org/2000/svg"
 width="512.000000pt" height="512.000000pt" viewBox="0 0 512.000000 512.000000"
 preserveAspectRatio="xMidYMid meet">
<metadata>
Created by potrace 1.14, written by Peter Selinger 2001-2017
</metadata>
<g transform="translate(0.000000,512.000000) scale(0.100000,-0.100000)"
fill="#000000" stroke="none">
<path d="M1749 5106 c-2 -2 -20 -7 -41 -10 -47 -7 -125 -34 -157 -54 -120 -73
-199 -143 -258 -227 -55 -79 -103 -188 -132 -301 -32 -122 -32 -357 -1 -514 6
-30 14 -66 16 -80 3 -14 22 -77 44 -141 114 -343 291 -569 620 -794 152 -104
485 -264 677 -325 48 -15 87 -5 288 77 713 290 1112 768 1173 1408 20 207 -7
388 -82 549 -89 194 -259 344 -451 397 -76 21 -264 18 -355 -6 -154 -41 -295
-102 -438 -189 l-94 -57 -86 53 c-155 95 -271 147 -412 184 -85 23 -297 43
-311 30z"/>
<path d="M392 4589 c-82 -17 -135 -85 -146 -188 -4 -30 -9 -64 -11 -75 -4 -20
-13 -88 -20 -151 -2 -16 -8 -59 -14 -95 -5 -36 -12 -83 -15 -105 -3 -22 -13
-89 -21 -150 -9 -60 -18 -128 -21 -150 -3 -22 -7 -47 -9 -55 -2 -8 -6 -40 -10
-71 -3 -31 -8 -67 -10 -79 -2 -12 -6 -41 -9 -64 -3 -22 -12 -86 -20 -141 -8
-55 -17 -122 -21 -150 -3 -27 -17 -120 -30 -205 -19 -126 -23 -184 -20 -310 5
-204 17 -272 110 -650 119 -486 148 -613 161 -705 3 -22 7 -51 9 -65 7 -47 15
-165 20 -277 4 -101 3 -113 -12 -113 -34 0 -99 -48 -117 -87 -15 -34 -17 -72
-14 -350 3 -299 4 -313 23 -327 17 -13 99 -15 601 -16 577 0 581 0 608 21 l27
21 -3 322 -3 321 -24 32 c-23 30 -75 57 -126 65 -34 6 -21 78 34 193 65 133
79 175 106 315 14 74 17 316 5 382 -29 153 -31 213 -13 283 8 28 16 57 18 65
2 8 32 107 66 220 55 183 62 215 64 303 3 101 -7 143 -55 238 -87 169 -330
176 -414 11 -7 -15 -48 -117 -89 -227 -106 -280 -107 -283 -118 -262 -6 9 -44
92 -85 184 -85 190 -118 294 -130 409 -15 143 -10 448 10 550 2 11 7 58 11
105 4 46 8 91 10 99 1 8 8 65 14 125 7 61 14 126 17 145 3 19 7 94 9 165 5
145 -6 199 -58 295 -79 147 -184 220 -285 199z m100 -176 c87 -98 113 -181
104 -338 -3 -60 -8 -121 -10 -135 -3 -14 -7 -52 -11 -85 -3 -33 -8 -78 -10
-100 -6 -51 -12 -112 -21 -200 -3 -38 -8 -77 -9 -86 -27 -147 -27 -460 0 -658
14 -100 90 -297 211 -546 42 -87 122 -121 201 -85 22 10 49 31 60 46 11 16 61
139 112 274 50 134 100 252 111 262 24 22 71 26 103 9 14 -7 38 -36 53 -64 45
-83 43 -169 -7 -338 -118 -397 -121 -411 -122 -494 0 -44 3 -93 6 -110 18 -84
22 -133 21 -280 -2 -194 -18 -266 -99 -435 -54 -112 -73 -176 -70 -232 l2 -28
-329 0 -328 0 -1 38 c0 20 -2 62 -4 92 -2 30 -6 98 -9 150 -3 52 -8 104 -10
115 -2 11 -7 43 -10 70 -8 58 -31 173 -52 260 -8 33 -17 71 -20 84 -3 14 -39
162 -80 330 -73 297 -89 368 -100 441 -3 19 -8 46 -10 60 -10 48 -14 325 -5
365 5 22 12 67 16 100 3 33 7 67 10 75 2 8 6 35 9 59 4 37 14 104 41 299 3 17
7 49 10 70 3 20 7 51 10 67 3 17 7 46 9 65 14 96 38 268 41 290 9 57 18 121
30 215 6 50 42 294 51 350 9 57 14 65 44 65 19 0 38 -11 62 -37z"/>
<path d="M4652 4589 c-97 -20 -207 -151 -253 -302 -14 -46 -17 -85 -14 -185 2
-70 6 -140 8 -157 3 -16 8 -64 12 -105 3 -41 8 -82 10 -90 2 -8 7 -49 10 -90
4 -41 8 -86 10 -100 19 -131 30 -283 30 -420 0 -268 -21 -382 -101 -558 -19
-41 -34 -75 -34 -77 0 -13 -91 -195 -98 -195 -8 0 -115 265 -126 310 -8 33
-69 177 -87 206 -38 62 -125 101 -213 96 -143 -8 -250 -176 -242 -381 3 -73
16 -126 81 -341 86 -285 90 -319 62 -490 -9 -52 -15 -150 -15 -218 0 -106 7
-163 32 -281 12 -56 41 -132 87 -226 31 -64 49 -116 51 -145 3 -44 2 -45 -32
-50 -65 -11 -102 -39 -125 -94 -22 -53 -21 -632 1 -661 15 -20 28 -20 609 -23
l593 -2 21 26 c20 26 21 37 21 331 0 298 -1 306 -22 345 -22 38 -79 78 -112
78 -29 0 -7 320 38 575 2 11 9 40 16 65 7 25 14 54 16 65 2 11 35 151 74 310
39 160 72 300 75 313 2 13 8 38 14 55 5 18 12 49 16 71 3 21 7 41 9 45 2 3 7
30 11 60 4 30 9 63 11 75 10 43 14 342 5 381 -5 22 -12 65 -15 96 -4 31 -8 65
-10 75 -2 11 -7 44 -11 74 -4 30 -9 62 -10 70 -1 8 -6 40 -10 70 -4 30 -9 62
-10 70 -1 8 -6 40 -10 70 -4 30 -9 62 -10 70 -1 8 -6 40 -10 70 -4 30 -9 62
-10 70 -1 8 -6 40 -10 70 -4 30 -9 62 -10 70 -2 8 -6 42 -10 75 -3 32 -8 62
-10 65 -1 3 -6 32 -9 65 -4 33 -14 105 -22 160 -8 55 -17 115 -19 135 -2 19
-7 52 -11 73 -6 41 -8 54 -19 142 -7 61 -23 107 -47 136 -38 45 -115 71 -176
58z m74 -162 c4 -11 8 -37 10 -56 2 -20 6 -47 9 -61 6 -31 12 -70 20 -135 3
-27 10 -77 15 -110 5 -33 12 -80 15 -105 3 -25 8 -56 10 -70 2 -14 6 -43 9
-65 3 -22 17 -121 31 -220 14 -99 28 -193 30 -210 2 -16 18 -126 35 -243 16
-118 33 -237 36 -265 3 -29 10 -70 15 -92 9 -41 5 -297 -5 -370 -10 -62 -36
-194 -53 -260 -8 -33 -16 -67 -18 -75 -2 -8 -29 -118 -59 -244 -31 -127 -58
-239 -61 -250 -2 -12 -13 -57 -24 -101 -20 -84 -46 -219 -56 -295 -7 -60 -23
-303 -24 -377 l-1 -33 -123 0 c-110 0 -126 -2 -145 -20 -12 -12 -22 -27 -22
-35 0 -12 -20 -15 -110 -15 -84 0 -110 3 -110 13 0 7 -9 23 -20 35 -16 17 -32
22 -74 22 l-53 0 2 34 c2 53 -20 127 -68 223 -42 84 -72 161 -82 214 -3 13 -8
35 -11 49 -14 57 -12 307 3 395 30 174 23 230 -57 500 -40 132 -76 258 -82
280 -25 105 18 256 83 288 34 16 81 9 106 -15 10 -11 80 -183 115 -283 38
-111 84 -224 101 -249 26 -37 90 -65 136 -60 62 8 98 41 141 132 22 46 40 85
40 87 0 2 17 41 38 87 86 184 111 271 131 453 9 79 7 401 -3 460 -3 17 -8 62
-11 100 -3 39 -7 77 -10 85 -2 8 -7 49 -11 90 -14 154 -25 260 -31 285 -2 11
-6 74 -9 141 -3 102 -1 130 15 177 47 137 163 239 187 164z"/>
</g>
</svg>
